{"asset":{"version":"2.0","generator":"babylon.js glTF exporter for 3dsmax 2022 v20211102.1"},"scene":0,"scenes":[{"nodes":[0,1,2,3]}],"nodes":[{"translation":[2.29856634,0.332824349,-0.04097347],"rotation":[0.7071068,0.0,0.0,0.7071067],"name":"Camera_Triangle.Target"},{"mesh":0,"translation":[0.49999997,0.49999997,-0.3999998],"rotation":[-0.107825518,-0.8760452,-0.2849578,-0.373788],"scale":[4.855507,4.85550642,4.85550642],"name":"Triangle"},{"mesh":1,"translation":[5.40608025,1.7865535,-0.265571862],"rotation":[-0.8787759,0.112709649,0.3726009,-0.276076138],"scale":[4.85550737,4.85550547,4.85550642],"name":"Triangle_2"},{"camera":0,"translation":[2.29856634,0.332821548,126.428253],"name":"Camera_Triangle"}],"cameras":[{"perspective":{"yfov":0.06713557,"zfar":10000.0,"znear":0.1},"type":"perspective","name":"Camera_Triangle"}],"meshes":[{"primitives":[{"attributes":{"POSITION":1,"NORMAL":2,"TEXCOORD_0":3},"indices":0,"material":0},{"attributes":{"POSITION":5,"NORMAL":6,"TEXCOORD_0":7},"indices":4,"material":1},{"attributes":{"POSITION":9,"NORMAL":10,"TEXCOORD_0":11},"indices":8,"material":2}],"name":"Triangle"},{"primitives":[{"attributes":{"POSITION":13,"NORMAL":14,"TEXCOORD_0":15},"indices":12,"material":0},{"attributes":{"POSITION":17,"NORMAL":18,"TEXCOORD_0":19},"indices":16,"material":1},{"attributes":{"POSITION":21,"NORMAL":22,"TEXCOORD_0":23},"indices":20,"material":2}],"name":"Triangle_2"}],"accessors":[{"bufferView":0,"componentType":5123,"count":165,"type":"SCALAR","name":"accessorIndices"},{"bufferView":1,"componentType":5126,"count":69,"max":[0.5999998,0.5480001,0.448000073],"min":[-0.548000038,-0.548,-0.500000358],"type":"VEC3","name":"accessorPositions"},{"bufferView":1,"byteOffset":828,"componentType":5126,"count":69,"type":"VEC3","name":"accessorNormals"},{"bufferView":2,"componentType":5126,"count":69,"type":"VEC2","name":"accessorUVs"},{"bufferView":0,"byteOffset":332,"componentType":5123,"count":150,"type":"SCALAR","name":"accessorIndices"},{"bufferView":1,"byteOffset":1656,"componentType":5126,"count":56,"max":[0.5999998,0.548000038,0.448000073],"min":[-0.548000038,-0.548,-0.500000358],"type":"VEC3","name":"accessorPositions"},{"bufferView":1,"byteOffset":2328,"componentType":5126,"count":56,"type":"VEC3","name":"accessorNormals"},{"bufferView":2,"byteOffset":552,"componentType":5126,"count":56,"type":"VEC2","name":"accessorUVs"},{"bufferView":0,"byteOffset":632,"componentType":5123,"count":57,"type":"SCALAR","name":"accessorIndices"},{"bufferView":1,"byteOffset":3000,"componentType":5126,"count":88,"max":[0.5999998,0.5480001,0.448000073],"min":[-0.548000038,-0.548,-0.500000358],"type":"VEC3","name":"accessorPositions"},{"bufferView":1,"byteOffset":4056,"componentType":5126,"count":88,"type":"VEC3","name":"accessorNormals"},{"bufferView":2,"byteOffset":1000,"componentType":5126,"count":88,"type":"VEC2","name":"accessorUVs"},{"bufferView":0,"byteOffset":748,"componentType":5123,"count":165,"type":"SCALAR","name":"accessorIndices"},{"bufferView":1,"byteOffset":5112,"componentType":5126,"count":69,"max":[0.5739998,0.548000038,0.474000245],"min":[-0.573999941,-0.548000038,-0.4740002],"type":"VEC3","name":"accessorPositions"},{"bufferView":1,"byteOffset":5940,"componentType":5126,"count":69,"type":"VEC3","name":"accessorNormals"},{"bufferView":2,"byteOffset":1704,"componentType":5126,"count":69,"type":"VEC2","name":"accessorUVs"},{"bufferView":0,"byteOffset":1080,"componentType":5123,"count":150,"type":"SCALAR","name":"accessorIndices"},{"bufferView":1,"byteOffset":6768,"componentType":5126,"count":56,"max":[0.5739998,0.548,0.474000245],"min":[-0.573999941,-0.548000038,-0.4740002],"type":"VEC3","name":"accessorPositions"},{"bufferView":1,"byteOffset":7440,"componentType":5126,"count":56,"type":"VEC3","name":"accessorNormals"},{"bufferView":2,"byteOffset":2256,"componentType":5126,"count":56,"type":"VEC2","name":"accessorUVs"},{"bufferView":0,"byteOffset":1380,"componentType":5123,"count":57,"type":"SCALAR","name":"accessorIndices"},{"bufferView":1,"byteOffset":8112,"componentType":5126,"count":88,"max":[0.5739998,0.548000038,0.474000245],"min":[-0.573999941,-0.548000038,-0.4740002],"type":"VEC3","name":"accessorPositions"},{"bufferView":1,"byteOffset":9168,"componentType":5126,"count":88,"type":"VEC3","name":"accessorNormals"},{"bufferView":2,"byteOffset":2704,"componentType":5126,"count":88,"type":"VEC2","name":"accessorUVs"}],"bufferViews":[{"buffer":0,"byteLength":1496,"name":"bufferViewScalar"},{"buffer":0,"byteOffset":1496,"byteLength":10224,"byteStride":12,"name":"bufferViewFloatVec3"},{"buffer":0,"byteOffset":11720,"byteLength":3408,"byteStride":8,"name":"bufferViewFloatVec2"}],"buffers":[{"uri":"doubletriangle.bin","byteLength":15128}],"materials":[{"pbrMetallicRoughness":{"baseColorFactor":[0.29,0.443,0.518,1.0],"metallicFactor":0.0,"roughnessFactor":0.0},"emissiveFactor":[0.2901961,0.443137228,0.517647147],"doubleSided":true,"name":"Material_001"},{"pbrMetallicRoughness":{"baseColorFactor":[0.106,0.165,0.192,1.0],"metallicFactor":0.0,"roughnessFactor":0.0},"emissiveFactor":[0.105882354,0.164705873,0.1921569],"doubleSided":true,"name":"Material_002"},{"pbrMetallicRoughness":{"baseColorFactor":[0.031,0.047,0.059,1.0],"metallicFactor":0.0,"roughnessFactor":0.0},"emissiveFactor":[0.03137255,0.04705882,0.0588235371],"doubleSided":true,"name":"Material_003"}]}