{"asset":{"version":"2.0","generator":"babylon.js glTF exporter for 3dsmax 2022 v20211102.1"},"scene":0,"scenes":[{"nodes":[0,1,2,3,18]}],"nodes":[{"mesh":0,"translation":[0.362817734,0.5020036,-0.404869258],"rotation":[-0.111267217,-0.872051954,-0.2819771,-0.3842317],"scale":[4.85369253,4.85369349,4.85369349],"name":"Cube"},{"translation":[3.21090078,1.05760467,-0.04097347],"rotation":[0.7071068,0.0,0.0,0.7071067],"name":"Camera001.Target"},{"mesh":1,"translation":[5.406608,1.68584132,-0.4048692],"rotation":[-0.872051954,0.1112671,0.3842317,-0.281977],"scale":[4.85369349,4.85369349,4.85369349],"name":"Cube001"},{"children":[4],"translation":[2.28139162,-0.5683877,-0.9477645],"rotation":[-0.282524675,0.35892576,-0.184454009,0.8702464],"scale":[23.44825,23.4482479,23.44825],"name":"Assembly-1"},{"children":[5],"rotation":[-0.7071068,-1.580507E-08,1.05367137E-08,0.7071067],"scale":[0.99999994,0.99999994,1.0],"name":"Assembly-2"},{"children":[6],"rotation":[7.450581E-09,0.0,-3.72529074E-09,1.0],"scale":[1.0,0.99999994,1.0],"name":"Assembly-3"},{"children":[7,10,12,15],"rotation":[7.450581E-09,0.0,-3.72529074E-09,1.0],"scale":[1.0,0.99999994,1.0],"name":"Assembly-4"},{"children":[8],"translation":[-0.0562820025,-0.0450409949,-0.0585829951],"rotation":[1.47151615E-08,0.0,-3.67879038E-09,1.0],"scale":[0.88054,0.12658,0.12658],"name":"Assembly-5"},{"children":[9],"rotation":[0.0,-5.86733222E-08,6.00703061E-08,1.0],"scale":[1.0,0.9999999,0.9999999],"name":"Assembly-6"},{"rotation":[-1.77635684E-15,-5.86733151E-08,-9.313226E-10,1.0],"scale":[1.00000012,1.0,0.99999994],"name":"Assembly-7"},{"children":[11],"rotation":[7.450581E-09,0.0,-3.72529074E-09,1.0],"scale":[1.0,0.99999994,1.0],"name":"Assembly-8"},{"rotation":[7.450581E-09,0.0,-3.72529074E-09,1.0],"scale":[1.0,0.99999994,1.0],"name":"Assembly-9"},{"children":[13],"translation":[-1.0,-1.014875,-0.99999994],"rotation":[-0.5031342,-0.7673337,-0.217994824,-0.33246544],"scale":[2.58482242,2.313304,3.71161675],"name":"Assembly-10"},{"children":[14],"rotation":[9.31322464E-10,7.450581E-09,4.656613E-10,1.0],"scale":[1.0,1.00000012,1.0],"name":"Assembly-11"},{"rotation":[9.31322464E-10,7.450581E-09,4.656613E-10,1.0],"scale":[1.0,1.00000012,1.0],"name":"Assembly-12"},{"children":[16],"translation":[-0.0412740037,-0.050509,-0.00142600224],"rotation":[-3.67879038E-09,-1.0,-1.47151615E-08,0.0],"scale":[0.88054,-0.12658,0.12658],"name":"Assembly-16"},{"children":[17],"rotation":[0.0,-5.86733222E-08,6.00703061E-08,1.0],"scale":[1.0,0.9999999,0.9999999],"name":"Assembly-17"},{"rotation":[-1.77635684E-15,-5.86733151E-08,-9.313226E-10,1.0],"scale":[1.00000012,1.0,0.99999994],"name":"Assembly-18"},{"camera":0,"translation":[3.21090078,1.05760169,126.428253],"name":"Camera001"}],"cameras":[{"perspective":{"yfov":0.0528138056,"zfar":10000.0,"znear":0.1},"type":"perspective","name":"Camera001"}],"meshes":[{"primitives":[{"attributes":{"POSITION":1,"NORMAL":2,"TEXCOORD_0":3},"indices":0,"material":0},{"attributes":{"POSITION":5,"NORMAL":6,"TEXCOORD_0":7},"indices":4,"material":1},{"attributes":{"POSITION":9,"NORMAL":10,"TEXCOORD_0":11},"indices":8,"material":2}],"name":"Cube"},{"primitives":[{"attributes":{"POSITION":13,"NORMAL":14,"TEXCOORD_0":15},"indices":12,"material":3},{"attributes":{"POSITION":17,"NORMAL":18,"TEXCOORD_0":19},"indices":16,"material":4},{"attributes":{"POSITION":21,"NORMAL":22,"TEXCOORD_0":23},"indices":20,"material":5}],"name":"Cube001"}],"accessors":[{"bufferView":0,"componentType":5123,"count":165,"type":"SCALAR","name":"accessorIndices"},{"bufferView":1,"componentType":5126,"count":69,"max":[0.579999864,0.5480001,0.4680002],"min":[-0.568,-0.548000038,-0.480000079],"type":"VEC3","name":"accessorPositions"},{"bufferView":1,"byteOffset":828,"componentType":5126,"count":69,"type":"VEC3","name":"accessorNormals"},{"bufferView":2,"componentType":5126,"count":69,"type":"VEC2","name":"accessorUVs"},{"bufferView":0,"byteOffset":332,"componentType":5123,"count":150,"type":"SCALAR","name":"accessorIndices"},{"bufferView":1,"byteOffset":1656,"componentType":5126,"count":56,"max":[0.579999864,0.5480001,0.4680002],"min":[-0.568,-0.548000038,-0.480000079],"type":"VEC3","name":"accessorPositions"},{"bufferView":1,"byteOffset":2328,"componentType":5126,"count":56,"type":"VEC3","name":"accessorNormals"},{"bufferView":2,"byteOffset":552,"componentType":5126,"count":56,"type":"VEC2","name":"accessorUVs"},{"bufferView":0,"byteOffset":632,"componentType":5123,"count":57,"type":"SCALAR","name":"accessorIndices"},{"bufferView":1,"byteOffset":3000,"componentType":5126,"count":88,"max":[0.579999864,0.5480001,0.4680002],"min":[-0.568,-0.548000038,-0.480000079],"type":"VEC3","name":"accessorPositions"},{"bufferView":1,"byteOffset":4056,"componentType":5126,"count":88,"type":"VEC3","name":"accessorNormals"},{"bufferView":2,"byteOffset":1000,"componentType":5126,"count":88,"type":"VEC2","name":"accessorUVs"},{"bufferView":0,"byteOffset":748,"componentType":5123,"count":165,"type":"SCALAR","name":"accessorIndices"},{"bufferView":1,"byteOffset":5112,"componentType":5126,"count":69,"max":[0.579999864,0.5480001,0.4680002],"min":[-0.568,-0.548000038,-0.480000079],"type":"VEC3","name":"accessorPositions"},{"bufferView":1,"byteOffset":5940,"componentType":5126,"count":69,"type":"VEC3","name":"accessorNormals"},{"bufferView":2,"byteOffset":1704,"componentType":5126,"count":69,"type":"VEC2","name":"accessorUVs"},{"bufferView":0,"byteOffset":1080,"componentType":5123,"count":150,"type":"SCALAR","name":"accessorIndices"},{"bufferView":1,"byteOffset":6768,"componentType":5126,"count":56,"max":[0.579999864,0.5480001,0.4680002],"min":[-0.568,-0.548000038,-0.480000079],"type":"VEC3","name":"accessorPositions"},{"bufferView":1,"byteOffset":7440,"componentType":5126,"count":56,"type":"VEC3","name":"accessorNormals"},{"bufferView":2,"byteOffset":2256,"componentType":5126,"count":56,"type":"VEC2","name":"accessorUVs"},{"bufferView":0,"byteOffset":1380,"componentType":5123,"count":57,"type":"SCALAR","name":"accessorIndices"},{"bufferView":1,"byteOffset":8112,"componentType":5126,"count":88,"max":[0.579999864,0.5480001,0.4680002],"min":[-0.568,-0.548000038,-0.480000079],"type":"VEC3","name":"accessorPositions"},{"bufferView":1,"byteOffset":9168,"componentType":5126,"count":88,"type":"VEC3","name":"accessorNormals"},{"bufferView":2,"byteOffset":2704,"componentType":5126,"count":88,"type":"VEC2","name":"accessorUVs"}],"bufferViews":[{"buffer":0,"byteLength":1496,"name":"bufferViewScalar"},{"buffer":0,"byteOffset":1496,"byteLength":10224,"byteStride":12,"name":"bufferViewFloatVec3"},{"buffer":0,"byteOffset":11720,"byteLength":3408,"byteStride":8,"name":"bufferViewFloatVec2"}],"buffers":[{"uri":"double_triangle.bin","byteLength":15128}],"materials":[{"pbrMetallicRoughness":{"baseColorFactor":[0.3529412,0.172549024,0.109803922,1.0],"metallicFactor":0.0,"roughnessFactor":0.450053632},"emissiveFactor":[0.3529412,0.172549024,0.109803922],"doubleSided":true,"name":"Material #7"},{"pbrMetallicRoughness":{"baseColorFactor":[0.6039216,0.294117659,0.1764706,1.0],"metallicFactor":0.0,"roughnessFactor":0.450053632},"emissiveFactor":[0.6039216,0.294117659,0.1764706],"doubleSided":true,"name":"Material #6"},{"pbrMetallicRoughness":{"baseColorFactor":[0.5411765,0.258823544,0.160784319,1.0],"metallicFactor":0.0,"roughnessFactor":0.450053632},"emissiveFactor":[0.5411765,0.258823544,0.160784319],"doubleSided":true,"name":"Material #4"},{"pbrMetallicRoughness":{"baseColorFactor":[0.6039216,0.294117659,0.1764706,1.0],"metallicFactor":0.0,"roughnessFactor":0.450053632},"emissiveFactor":[0.6039216,0.294117659,0.1764706],"doubleSided":true,"name":"Material #2"},{"pbrMetallicRoughness":{"baseColorFactor":[0.796078444,0.443137258,0.309803933,1.0],"metallicFactor":0.0,"roughnessFactor":0.450053632},"emissiveFactor":[0.796078444,0.443137258,0.309803933],"doubleSided":true,"name":"Material #1"},{"pbrMetallicRoughness":{"baseColorFactor":[0.5411765,0.258823544,0.160784319,1.0],"metallicFactor":0.0,"roughnessFactor":0.450053632},"emissiveFactor":[0.5411765,0.258823544,0.160784319],"doubleSided":true,"name":"Material #0"}]}