{"asset":{"version":"2.0","generator":"babylon.js glTF exporter for 3dsmax 2022 v20211102.1"},"scene":0,"scenes":[{"nodes":[0,1,2]}],"nodes":[{"translation":[2.29856634,0.332824349,-0.04097347],"rotation":[0.7071068,0.0,0.0,0.7071067],"name":"Camera_Triangle.Target"},{"mesh":0,"translation":[2.41347718,0.332005054,-0.406347],"rotation":[0.215675458,-0.372109979,-0.0893356353,0.8983526],"scale":[0.416968316,0.416968346,0.416968316],"name":"Cube"},{"camera":0,"translation":[2.29856634,0.332821548,126.428253],"name":"Camera_Triangle"}],"cameras":[{"perspective":{"yfov":0.044542633,"zfar":10000.0,"znear":0.1},"type":"perspective","name":"Camera_Triangle"}],"meshes":[{"primitives":[{"attributes":{"POSITION":1,"NORMAL":2,"TEXCOORD_0":3},"indices":0,"material":0},{"attributes":{"POSITION":5,"NORMAL":6,"TEXCOORD_0":7},"indices":4,"material":1},{"attributes":{"POSITION":9,"NORMAL":10,"TEXCOORD_0":11},"indices":8,"material":2}],"name":"Cube"}],"accessors":[{"bufferView":0,"componentType":5123,"count":246,"type":"SCALAR","name":"accessorIndices"},{"bufferView":1,"componentType":5126,"count":130,"max":[3.74999976,3.74999976,3.74999976],"min":[-3.74999976,-3.74999976,-3.74999976],"type":"VEC3","name":"accessorPositions"},{"bufferView":1,"byteOffset":1560,"componentType":5126,"count":130,"type":"VEC3","name":"accessorNormals"},{"bufferView":2,"componentType":5126,"count":130,"type":"VEC2","name":"accessorUVs"},{"bufferView":0,"byteOffset":492,"componentType":5123,"count":60,"type":"SCALAR","name":"accessorIndices"},{"bufferView":1,"byteOffset":3120,"componentType":5126,"count":76,"max":[3.74999976,3.74999976,3.74999976],"min":[-3.74999976,-3.74999976,-3.74999976],"type":"VEC3","name":"accessorPositions"},{"bufferView":1,"byteOffset":4032,"componentType":5126,"count":76,"type":"VEC3","name":"accessorNormals"},{"bufferView":2,"byteOffset":1040,"componentType":5126,"count":76,"type":"VEC2","name":"accessorUVs"},{"bufferView":0,"byteOffset":612,"componentType":5123,"count":54,"type":"SCALAR","name":"accessorIndices"},{"bufferView":1,"byteOffset":4944,"componentType":5126,"count":28,"max":[3.74999976,3.74999976,3.74999976],"min":[-3.74999976,-2.98586869,-3.74999976],"type":"VEC3","name":"accessorPositions"},{"bufferView":1,"byteOffset":5280,"componentType":5126,"count":28,"type":"VEC3","name":"accessorNormals"},{"bufferView":2,"byteOffset":1648,"componentType":5126,"count":28,"type":"VEC2","name":"accessorUVs"}],"bufferViews":[{"buffer":0,"byteLength":720,"name":"bufferViewScalar"},{"buffer":0,"byteOffset":720,"byteLength":5616,"byteStride":12,"name":"bufferViewFloatVec3"},{"buffer":0,"byteOffset":6336,"byteLength":1872,"byteStride":8,"name":"bufferViewFloatVec2"}],"buffers":[{"uri":"cube.bin","byteLength":8208}],"materials":[{"pbrMetallicRoughness":{"baseColorFactor":[0.235294119,0.223529413,0.137254909,1.0],"metallicFactor":0.0,"roughnessFactor":0.0},"emissiveFactor":[0.2352941,0.2235294,0.137254938],"doubleSided":true,"name":"Material_001"},{"pbrMetallicRoughness":{"baseColorFactor":[0.109803922,0.105882354,0.07058824,1.0],"metallicFactor":0.0,"roughnessFactor":0.0},"emissiveFactor":[0.109803922,0.105882347,0.070588246],"doubleSided":true,"name":"Material_002"},{"pbrMetallicRoughness":{"baseColorFactor":[0.470588237,0.4509804,0.294117659,1.0],"metallicFactor":0.0,"roughnessFactor":0.0},"emissiveFactor":[0.4705882,0.450980365,0.294117719],"doubleSided":true,"name":"Material_003"}]}