{"asset":{"version":"2.0","generator":"babylon.js glTF exporter for 3dsmax 2022 v20211102.1"},"scene":0,"scenes":[{"nodes":[0,1,2]}],"nodes":[{"translation":[2.4100492,0.34550795,-0.04097347],"rotation":[0.7071068,0.0,0.0,0.7071067],"name":"Camera001.Target"},{"mesh":0,"translation":[0.3187117,0.502597749,-0.4016979],"rotation":[-0.0722589046,-0.469759732,0.537534833,0.6965348],"scale":[1.0387001,1.03869987,1.03870022],"name":"Box001"},{"camera":0,"translation":[2.4100492,0.345505118,126.428253],"name":"Camera001"}],"cameras":[{"perspective":{"yfov":0.044542633,"zfar":10000.0,"znear":0.1},"type":"perspective","name":"Camera001"}],"meshes":[{"primitives":[{"attributes":{"POSITION":1,"NORMAL":2,"TEXCOORD_0":3},"indices":0,"material":0},{"attributes":{"POSITION":5,"NORMAL":6,"TEXCOORD_0":7},"indices":4,"material":1},{"attributes":{"POSITION":9,"NORMAL":10,"TEXCOORD_0":11},"indices":8,"material":2}],"name":"Box001"}],"accessors":[{"bufferView":0,"componentType":5123,"count":138,"type":"SCALAR","name":"accessorIndices"},{"bufferView":1,"componentType":5126,"count":70,"max":[2.55838442,2.67509079,2.217069],"min":[-2.558014,-2.68013716,-2.217069],"type":"VEC3","name":"accessorPositions"},{"bufferView":1,"byteOffset":840,"componentType":5126,"count":70,"type":"VEC3","name":"accessorNormals"},{"bufferView":2,"componentType":5126,"count":70,"type":"VEC2","name":"accessorUVs"},{"bufferView":0,"byteOffset":276,"componentType":5123,"count":114,"type":"SCALAR","name":"accessorIndices"},{"bufferView":1,"byteOffset":1680,"componentType":5126,"count":44,"max":[2.558014,2.67509079,2.217069],"min":[-2.558014,-2.67508245,-2.217069],"type":"VEC3","name":"accessorPositions"},{"bufferView":1,"byteOffset":2208,"componentType":5126,"count":44,"type":"VEC3","name":"accessorNormals"},{"bufferView":2,"byteOffset":560,"componentType":5126,"count":44,"type":"VEC2","name":"accessorUVs"},{"bufferView":0,"byteOffset":504,"componentType":5123,"count":120,"type":"SCALAR","name":"accessorIndices"},{"bufferView":1,"byteOffset":2736,"componentType":5126,"count":48,"max":[2.55838442,2.67509079,2.21589518],"min":[-2.558014,-2.68013716,-2.217069],"type":"VEC3","name":"accessorPositions"},{"bufferView":1,"byteOffset":3312,"componentType":5126,"count":48,"type":"VEC3","name":"accessorNormals"},{"bufferView":2,"byteOffset":912,"componentType":5126,"count":48,"type":"VEC2","name":"accessorUVs"}],"bufferViews":[{"buffer":0,"byteLength":744,"name":"bufferViewScalar"},{"buffer":0,"byteOffset":744,"byteLength":3888,"byteStride":12,"name":"bufferViewFloatVec3"},{"buffer":0,"byteOffset":4632,"byteLength":1296,"byteStride":8,"name":"bufferViewFloatVec2"}],"buffers":[{"uri":"triangle.bin","byteLength":5928}],"materials":[{"pbrMetallicRoughness":{"baseColorFactor":[0.333333343,0.509803951,0.6,1.0],"metallicFactor":0.0,"roughnessFactor":0.450053632},"emissiveFactor":[0.333333343,0.509803951,0.6],"doubleSided":true,"name":"Material_001"},{"pbrMetallicRoughness":{"baseColorFactor":[0.270588249,0.41568628,0.4862745,1.0],"metallicFactor":0.0,"roughnessFactor":0.450053632},"doubleSided":true,"name":"Material_002"},{"pbrMetallicRoughness":{"baseColorFactor":[0.20784314,0.31764707,0.372549027,1.0],"metallicFactor":0.0,"roughnessFactor":0.450053632},"doubleSided":true,"name":"Material_003"}]}