{
    "asset" : {
        "generator" : "Khronos glTF Blender I/O v1.8.19",
        "version" : "2.0"
    },
    "scene" : 0,
    "scenes" : [
        {
            "name" : "Scene",
            "nodes" : [
                0,
                1,
                2
            ]
        }
    ],
    "nodes" : [
        {
            "name" : "Camera001",
            "rotation" : [
                0.7071068286895752,
                0,
                0,
                0.7071067094802856
            ],
            "scale" : [
                0.10000000149011612,
                0.10000000149011612,
                0.10000000149011612
            ],
            "translation" : [
                2.4100494384765625,
                0.34550514817237854,
                126.42826080322266
            ]
        },
        {
            "name" : "Camera001.Target",
            "rotation" : [
                0.7071068286895752,
                0,
                0,
                0.7071067094802856
            ],
            "scale" : [
                0.10000000149011612,
                0.10000000149011612,
                0.10000000149011612
            ],
            "translation" : [
                2.4100494384765625,
                0.345507949590683,
                -0.0409734733402729
            ]
        },
        {
            "mesh" : 0,
            "name" : "Box001",
            "rotation" : [
                -0.07400881499052048,
                -0.4711519181728363,
                0.5353869795799255,
                0.6970648169517517
            ],
            "scale" : [
                0.10386999696493149,
                0.10387000441551208,
                0.10387000441551208
            ],
            "translation" : [
                0.633993923664093,
                0.49469706416130066,
                3.814345598220825
            ]
        }
    ],
    "materials" : [
        {
            "doubleSided" : true,
            "name" : "Material_001",
            "pbrMetallicRoughness" : {
                "baseColorFactor" : [
                    0.3333333432674408,
                    0.5098039507865906,
                    0.6000000238418579,
                    1
                ],
                "roughnessFactor" : 0.858578622341156
            }
        },
        {
            "doubleSided" : true,
            "name" : "Material_002",
            "pbrMetallicRoughness" : {
                "baseColorFactor" : [
                    0.2705882489681244,
                    0.4156862795352936,
                    0.48627451062202454,
                    1
                ],
                "roughnessFactor" : 0.858578622341156
            }
        },
        {
            "doubleSided" : true,
            "name" : "Material_003",
            "pbrMetallicRoughness" : {
                "baseColorFactor" : [
                    0.2078431397676468,
                    0.3176470696926117,
                    0.37254902720451355,
                    1
                ],
                "roughnessFactor" : 0.858578622341156
            }
        }
    ],
    "meshes" : [
        {
            "name" : "Mesh",
            "primitives" : [
                {
                    "attributes" : {
                        "POSITION" : 0,
                        "NORMAL" : 1,
                        "TEXCOORD_0" : 2
                    },
                    "indices" : 3,
                    "material" : 0
                },
                {
                    "attributes" : {
                        "POSITION" : 4,
                        "NORMAL" : 5,
                        "TEXCOORD_0" : 6
                    },
                    "indices" : 7,
                    "material" : 1
                },
                {
                    "attributes" : {
                        "POSITION" : 8,
                        "NORMAL" : 9,
                        "TEXCOORD_0" : 10
                    },
                    "indices" : 11,
                    "material" : 2
                }
            ]
        }
    ],
    "accessors" : [
        {
            "bufferView" : 0,
            "componentType" : 5126,
            "count" : 66,
            "max" : [
                2.2537033557891846,
                53.50173568725586,
                2.25
            ],
            "min" : [
                -48.910282135009766,
                -0.050546079874038696,
                -42.09138107299805
            ],
            "type" : "VEC3"
        },
        {
            "bufferView" : 1,
            "componentType" : 5126,
            "count" : 66,
            "type" : "VEC3"
        },
        {
            "bufferView" : 2,
            "componentType" : 5126,
            "count" : 66,
            "type" : "VEC2"
        },
        {
            "bufferView" : 3,
            "componentType" : 5123,
            "count" : 138,
            "type" : "SCALAR"
        },
        {
            "bufferView" : 4,
            "componentType" : 5126,
            "count" : 44,
            "max" : [
                2.2500007152557373,
                53.50173568725586,
                2.25
            ],
            "min" : [
                -48.910282135009766,
                0,
                -42.09138107299805
            ],
            "type" : "VEC3"
        },
        {
            "bufferView" : 5,
            "componentType" : 5126,
            "count" : 44,
            "type" : "VEC3"
        },
        {
            "bufferView" : 6,
            "componentType" : 5126,
            "count" : 44,
            "type" : "VEC2"
        },
        {
            "bufferView" : 7,
            "componentType" : 5123,
            "count" : 114,
            "type" : "SCALAR"
        },
        {
            "bufferView" : 8,
            "componentType" : 5126,
            "count" : 44,
            "max" : [
                2.2537033557891846,
                53.50173568725586,
                2.2382619380950928
            ],
            "min" : [
                -48.910282135009766,
                -0.050546079874038696,
                -42.09138107299805
            ],
            "type" : "VEC3"
        },
        {
            "bufferView" : 9,
            "componentType" : 5126,
            "count" : 44,
            "type" : "VEC3"
        },
        {
            "bufferView" : 10,
            "componentType" : 5126,
            "count" : 44,
            "type" : "VEC2"
        },
        {
            "bufferView" : 11,
            "componentType" : 5123,
            "count" : 120,
            "type" : "SCALAR"
        }
    ],
    "bufferViews" : [
        {
            "buffer" : 0,
            "byteLength" : 792,
            "byteOffset" : 0
        },
        {
            "buffer" : 0,
            "byteLength" : 792,
            "byteOffset" : 792
        },
        {
            "buffer" : 0,
            "byteLength" : 528,
            "byteOffset" : 1584
        },
        {
            "buffer" : 0,
            "byteLength" : 276,
            "byteOffset" : 2112
        },
        {
            "buffer" : 0,
            "byteLength" : 528,
            "byteOffset" : 2388
        },
        {
            "buffer" : 0,
            "byteLength" : 528,
            "byteOffset" : 2916
        },
        {
            "buffer" : 0,
            "byteLength" : 352,
            "byteOffset" : 3444
        },
        {
            "buffer" : 0,
            "byteLength" : 228,
            "byteOffset" : 3796
        },
        {
            "buffer" : 0,
            "byteLength" : 528,
            "byteOffset" : 4024
        },
        {
            "buffer" : 0,
            "byteLength" : 528,
            "byteOffset" : 4552
        },
        {
            "buffer" : 0,
            "byteLength" : 352,
            "byteOffset" : 5080
        },
        {
            "buffer" : 0,
            "byteLength" : 240,
            "byteOffset" : 5432
        }
    ],
    "buffers" : [
        {
            "byteLength" : 5672,
            "uri" : "Triangle.bin"
        }
    ]
}
