{"asset":{"version":"2.0","generator":"babylon.js glTF exporter for 3dsmax 2022 v20211102.1"},"scene":0,"scenes":[{"nodes":[0,1,2]}],"nodes":[{"mesh":0,"translation":[0.362817734,0.5020036,-0.404869258],"rotation":[-0.111267217,-0.872051954,-0.2819771,-0.3842317],"scale":[4.85369253,4.85369349,4.85369349],"name":"Cube"},{"translation":[2.4100492,0.34550795,-0.04097347],"rotation":[0.7071068,0.0,0.0,0.7071067],"name":"Camera001.Target"},{"camera":0,"translation":[2.4100492,0.345505118,126.428253],"name":"Camera001"}],"cameras":[{"perspective":{"yfov":0.044542633,"zfar":10000.0,"znear":0.1},"type":"perspective","name":"Camera001"}],"meshes":[{"primitives":[{"attributes":{"POSITION":1,"NORMAL":2,"TEXCOORD_0":3},"indices":0,"material":0},{"attributes":{"POSITION":5,"NORMAL":6,"TEXCOORD_0":7},"indices":4,"material":1},{"attributes":{"POSITION":9,"NORMAL":10,"TEXCOORD_0":11},"indices":8,"material":2}],"name":"Cube"}],"accessors":[{"bufferView":0,"componentType":5123,"count":165,"type":"SCALAR","name":"accessorIndices"},{"bufferView":1,"componentType":5126,"count":120,"max":[0.579999864,0.5480001,0.4680002],"min":[-0.568,-0.548000038,-0.480000079],"type":"VEC3","name":"accessorPositions"},{"bufferView":1,"byteOffset":1440,"componentType":5126,"count":120,"type":"VEC3","name":"accessorNormals"},{"bufferView":2,"componentType":5126,"count":120,"type":"VEC2","name":"accessorUVs"},{"bufferView":0,"byteOffset":332,"componentType":5123,"count":150,"type":"SCALAR","name":"accessorIndices"},{"bufferView":1,"byteOffset":2880,"componentType":5126,"count":105,"max":[0.579999864,0.5480001,0.4680002],"min":[-0.568,-0.548000038,-0.480000079],"type":"VEC3","name":"accessorPositions"},{"bufferView":1,"byteOffset":4140,"componentType":5126,"count":105,"type":"VEC3","name":"accessorNormals"},{"bufferView":2,"byteOffset":960,"componentType":5126,"count":105,"type":"VEC2","name":"accessorUVs"},{"bufferView":0,"byteOffset":632,"componentType":5123,"count":57,"type":"SCALAR","name":"accessorIndices"},{"bufferView":1,"byteOffset":5400,"componentType":5126,"count":161,"max":[0.579999864,0.5480001,0.4680002],"min":[-0.568,-0.548000038,-0.480000079],"type":"VEC3","name":"accessorPositions"},{"bufferView":1,"byteOffset":7332,"componentType":5126,"count":161,"type":"VEC3","name":"accessorNormals"},{"bufferView":2,"byteOffset":1800,"componentType":5126,"count":161,"type":"VEC2","name":"accessorUVs"}],"bufferViews":[{"buffer":0,"byteLength":748,"name":"bufferViewScalar"},{"buffer":0,"byteOffset":748,"byteLength":9264,"byteStride":12,"name":"bufferViewFloatVec3"},{"buffer":0,"byteOffset":10012,"byteLength":3088,"byteStride":8,"name":"bufferViewFloatVec2"}],"buffers":[{"uri":"triangle.bin","byteLength":13100}],"materials":[{"pbrMetallicRoughness":{"baseColorFactor":[0.333333343,0.509803951,0.6,1.0],"metallicFactor":0.0,"roughnessFactor":0.450053632},"doubleSided":true,"name":"Material_001"},{"pbrMetallicRoughness":{"baseColorFactor":[0.270588249,0.41568628,0.4862745,1.0],"metallicFactor":0.0,"roughnessFactor":0.450053632},"doubleSided":true,"name":"Material_002"},{"pbrMetallicRoughness":{"baseColorFactor":[0.20784314,0.31764707,0.372549027,1.0],"metallicFactor":0.0,"roughnessFactor":0.450053632},"doubleSided":true,"name":"Material_003"}]}