{"asset":{"version":"2.0","generator":"babylon.js glTF exporter for 3dsmax 2022 v20211102.1"},"scene":0,"scenes":[{"nodes":[0,1,2]}],"nodes":[{"translation":[2.29856634,0.332824349,-0.04097347],"rotation":[0.7071068,0.0,0.0,0.7071067],"name":"Camera_Triangle.Target"},{"mesh":0,"translation":[0.49999997,0.49999997,-0.3999998],"rotation":[-0.108087607,-0.876006544,-0.285022974,-0.3737533],"scale":[4.855507,4.85550642,4.85550642],"name":"Triangle"},{"camera":0,"translation":[2.29856634,0.332821548,126.428253],"name":"Camera_Triangle"}],"cameras":[{"perspective":{"yfov":0.044542633,"zfar":10000.0,"znear":0.1},"type":"perspective","name":"Camera_Triangle"}],"meshes":[{"primitives":[{"attributes":{"POSITION":1,"NORMAL":2,"TEXCOORD_0":3},"indices":0,"material":0},{"attributes":{"POSITION":5,"NORMAL":6,"TEXCOORD_0":7},"indices":4,"material":1},{"attributes":{"POSITION":9,"NORMAL":10,"TEXCOORD_0":11},"indices":8,"material":2}],"name":"Triangle"}],"accessors":[{"bufferView":0,"componentType":5123,"count":165,"type":"SCALAR","name":"accessorIndices"},{"bufferView":1,"componentType":5126,"count":69,"max":[0.5999998,0.5480001,0.448000073],"min":[-0.548000038,-0.548,-0.500000358],"type":"VEC3","name":"accessorPositions"},{"bufferView":1,"byteOffset":828,"componentType":5126,"count":69,"type":"VEC3","name":"accessorNormals"},{"bufferView":2,"componentType":5126,"count":69,"type":"VEC2","name":"accessorUVs"},{"bufferView":0,"byteOffset":332,"componentType":5123,"count":150,"type":"SCALAR","name":"accessorIndices"},{"bufferView":1,"byteOffset":1656,"componentType":5126,"count":56,"max":[0.5999998,0.548000038,0.448000073],"min":[-0.548000038,-0.548,-0.500000358],"type":"VEC3","name":"accessorPositions"},{"bufferView":1,"byteOffset":2328,"componentType":5126,"count":56,"type":"VEC3","name":"accessorNormals"},{"bufferView":2,"byteOffset":552,"componentType":5126,"count":56,"type":"VEC2","name":"accessorUVs"},{"bufferView":0,"byteOffset":632,"componentType":5123,"count":57,"type":"SCALAR","name":"accessorIndices"},{"bufferView":1,"byteOffset":3000,"componentType":5126,"count":88,"max":[0.5999998,0.5480001,0.448000073],"min":[-0.548000038,-0.548,-0.500000358],"type":"VEC3","name":"accessorPositions"},{"bufferView":1,"byteOffset":4056,"componentType":5126,"count":88,"type":"VEC3","name":"accessorNormals"},{"bufferView":2,"byteOffset":1000,"componentType":5126,"count":88,"type":"VEC2","name":"accessorUVs"}],"bufferViews":[{"buffer":0,"byteLength":748,"name":"bufferViewScalar"},{"buffer":0,"byteOffset":748,"byteLength":5112,"byteStride":12,"name":"bufferViewFloatVec3"},{"buffer":0,"byteOffset":5860,"byteLength":1704,"byteStride":8,"name":"bufferViewFloatVec2"}],"buffers":[{"uri":"triangle.bin","byteLength":7564}],"materials":[{"pbrMetallicRoughness":{"baseColorFactor":[0.29,0.443,0.518,1.0],"metallicFactor":0.0,"roughnessFactor":0.0},"doubleSided":true,"name":"Material_001"},{"pbrMetallicRoughness":{"baseColorFactor":[0.106,0.165,0.192,1.0],"metallicFactor":0.0,"roughnessFactor":0.0},"doubleSided":true,"name":"Material_002"},{"pbrMetallicRoughness":{"baseColorFactor":[0.031,0.047,0.059,1.0],"metallicFactor":0.0,"roughnessFactor":0.0},"doubleSided":true,"name":"Material_003"}]}