{"asset":{"version":"2.0","generator":"babylon.js glTF exporter for 3dsmax 2022 v20211102.1"},"scene":0,"scenes":[{"nodes":[0,1,2]}],"nodes":[{"translation":[2.4100492,0.34550795,-0.04097347],"rotation":[0.7071068,0.0,0.0,0.7071067],"name":"Camera001.Target"},{"mesh":0,"translation":[0.318708837,0.5025993,-0.4017002],"rotation":[-0.0726847,-0.471396118,0.5375221,0.6953939],"scale":[1.0387001,1.03869987,1.0387001],"name":"Box001"},{"camera":0,"translation":[2.4100492,0.345505118,126.428253],"name":"Camera001"}],"cameras":[{"perspective":{"yfov":0.044542633,"zfar":10000.0,"znear":0.1},"type":"perspective","name":"Camera001"}],"meshes":[{"primitives":[{"attributes":{"POSITION":1,"NORMAL":2,"TEXCOORD_0":3},"indices":0,"material":0},{"attributes":{"POSITION":5,"NORMAL":6,"TEXCOORD_0":7},"indices":4,"material":1},{"attributes":{"POSITION":9,"NORMAL":10,"TEXCOORD_0":11},"indices":8,"material":2}],"name":"Box001"}],"accessors":[{"bufferView":0,"componentType":5123,"count":78,"type":"SCALAR","name":"accessorIndices"},{"bufferView":1,"componentType":5126,"count":40,"max":[2.558014,2.675087,2.21706867],"min":[-2.10446525,-2.725882,-2.21706915],"type":"VEC3","name":"accessorPositions"},{"bufferView":1,"byteOffset":480,"componentType":5126,"count":40,"type":"VEC3","name":"accessorNormals"},{"bufferView":2,"componentType":5126,"count":40,"type":"VEC2","name":"accessorUVs"},{"bufferView":0,"byteOffset":156,"componentType":5123,"count":60,"type":"SCALAR","name":"accessorIndices"},{"bufferView":1,"byteOffset":960,"componentType":5126,"count":22,"max":[2.10801387,2.675087,-1.76179147],"min":[-2.558014,-2.67508626,-1.76179147],"type":"VEC3","name":"accessorPositions"},{"bufferView":1,"byteOffset":1224,"componentType":5126,"count":22,"type":"VEC3","name":"accessorNormals"},{"bufferView":2,"byteOffset":320,"componentType":5126,"count":22,"type":"VEC2","name":"accessorUVs"},{"bufferView":0,"byteOffset":276,"componentType":5123,"count":60,"type":"SCALAR","name":"accessorIndices"},{"bufferView":1,"byteOffset":1488,"componentType":5126,"count":28,"max":[2.558014,-2.225086,2.21706867],"min":[-2.558014,-2.725882,-2.21706915],"type":"VEC3","name":"accessorPositions"},{"bufferView":1,"byteOffset":1824,"componentType":5126,"count":28,"type":"VEC3","name":"accessorNormals"},{"bufferView":2,"byteOffset":496,"componentType":5126,"count":28,"type":"VEC2","name":"accessorUVs"}],"bufferViews":[{"buffer":0,"byteLength":396,"name":"bufferViewScalar"},{"buffer":0,"byteOffset":396,"byteLength":2160,"byteStride":12,"name":"bufferViewFloatVec3"},{"buffer":0,"byteOffset":2556,"byteLength":720,"byteStride":8,"name":"bufferViewFloatVec2"}],"buffers":[{"uri":"triangle.bin","byteLength":3276}],"materials":[{"pbrMetallicRoughness":{"baseColorFactor":[0.333333343,0.509803951,0.6,1.0],"metallicFactor":0.0,"roughnessFactor":0.450053632},"doubleSided":true,"name":"Material_001"},{"pbrMetallicRoughness":{"baseColorFactor":[0.270588249,0.41568628,0.4862745,1.0],"metallicFactor":0.0,"roughnessFactor":0.450053632},"doubleSided":true,"name":"Material_002"},{"pbrMetallicRoughness":{"baseColorFactor":[0.20784314,0.31764707,0.372549027,1.0],"metallicFactor":0.0,"roughnessFactor":0.450053632},"doubleSided":true,"name":"Material_003"}]}