{"asset":{"version":"2.0","generator":"babylon.js glTF exporter for 3dsmax 2022 v20211102.1"},"scene":0,"scenes":[{"nodes":[0]}],"nodes":[{"mesh":0,"rotation":[-0.130520567,-0.8864382,-0.228363276,-0.380843759],"scale":[1.0,1.0,0.99999994],"name":"Cube"}],"meshes":[{"primitives":[{"attributes":{"POSITION":1,"NORMAL":2,"TEXCOORD_0":3},"indices":0,"material":0},{"attributes":{"POSITION":5,"NORMAL":6,"TEXCOORD_0":7},"indices":4,"material":1},{"attributes":{"POSITION":9,"NORMAL":10,"TEXCOORD_0":11},"indices":8,"material":2}],"name":"Cube"}],"accessors":[{"bufferView":0,"componentType":5123,"count":165,"type":"SCALAR","name":"accessorIndices"},{"bufferView":1,"componentType":5126,"count":69,"max":[1.0999999,1.0999999,0.1000004],"min":[-0.099999994,-0.099999994,-0.9],"type":"VEC3","name":"accessorPositions"},{"bufferView":1,"byteOffset":828,"componentType":5126,"count":69,"type":"VEC3","name":"accessorNormals"},{"bufferView":2,"componentType":5126,"count":69,"type":"VEC2","name":"accessorUVs"},{"bufferView":0,"byteOffset":332,"componentType":5123,"count":150,"type":"SCALAR","name":"accessorIndices"},{"bufferView":1,"byteOffset":1656,"componentType":5126,"count":56,"max":[1.0999999,1.0999999,0.1000004],"min":[-0.099999994,-0.099999994,-0.9],"type":"VEC3","name":"accessorPositions"},{"bufferView":1,"byteOffset":2328,"componentType":5126,"count":56,"type":"VEC3","name":"accessorNormals"},{"bufferView":2,"byteOffset":552,"componentType":5126,"count":56,"type":"VEC2","name":"accessorUVs"},{"bufferView":0,"byteOffset":632,"componentType":5123,"count":57,"type":"SCALAR","name":"accessorIndices"},{"bufferView":1,"byteOffset":3000,"componentType":5126,"count":88,"max":[1.0999999,1.0999999,0.1000004],"min":[-0.099999994,-0.099999994,-0.9],"type":"VEC3","name":"accessorPositions"},{"bufferView":1,"byteOffset":4056,"componentType":5126,"count":88,"type":"VEC3","name":"accessorNormals"},{"bufferView":2,"byteOffset":1000,"componentType":5126,"count":88,"type":"VEC2","name":"accessorUVs"}],"bufferViews":[{"buffer":0,"byteLength":748,"name":"bufferViewScalar"},{"buffer":0,"byteOffset":748,"byteLength":5112,"byteStride":12,"name":"bufferViewFloatVec3"},{"buffer":0,"byteOffset":5860,"byteLength":1704,"byteStride":8,"name":"bufferViewFloatVec2"}],"buffers":[{"uri":"triangle.bin","byteLength":7564}],"materials":[{"pbrMetallicRoughness":{"baseColorFactor":[0.5,0.5,0.5,1.0],"metallicFactor":0.0,"roughnessFactor":0.0},"doubleSided":true,"name":"Material_001"},{"pbrMetallicRoughness":{"baseColorFactor":[0.5,0.5,0.5,1.0],"metallicFactor":0.0,"roughnessFactor":0.0},"doubleSided":true,"name":"Material_002"},{"pbrMetallicRoughness":{"baseColorFactor":[0.5,0.5,0.5,1.0],"metallicFactor":0.0,"roughnessFactor":0.0},"doubleSided":true,"name":"Material_003"}]}