{"asset":{"version":"2.0","generator":"babylon.js glTF exporter for 3dsmax 2022 v20211102.1"},"scene":0,"scenes":[{"nodes":[0,1,16,17]}],"nodes":[{"translation":[3.21090078,1.05760467,-0.04097347],"rotation":[0.7071068,0.0,0.0,0.7071067],"name":"Camera001.Target"},{"children":[2],"translation":[2.28139162,-0.5683877,-0.9477645],"rotation":[-0.282524675,0.35892576,-0.184454009,0.8702464],"scale":[23.44825,23.4482479,23.44825],"name":"Assembly-1"},{"children":[3],"rotation":[-0.7071068,-1.580507E-08,1.05367137E-08,0.7071067],"scale":[0.99999994,0.99999994,1.0],"name":"Assembly-2"},{"children":[4],"rotation":[7.450581E-09,0.0,-3.72529074E-09,1.0],"scale":[1.0,0.99999994,1.0],"name":"Assembly-3"},{"children":[5,8,10,13],"rotation":[7.450581E-09,0.0,-3.72529074E-09,1.0],"scale":[1.0,0.99999994,1.0],"name":"Assembly-4"},{"children":[6],"translation":[-0.0562820025,-0.0450409949,-0.0585829951],"rotation":[1.47151615E-08,0.0,-3.67879038E-09,1.0],"scale":[0.88054,0.12658,0.12658],"name":"Assembly-5"},{"children":[7],"rotation":[0.0,-5.86733222E-08,6.00703061E-08,1.0],"scale":[1.0,0.9999999,0.9999999],"name":"Assembly-6"},{"rotation":[-1.77635684E-15,-5.86733151E-08,-9.313226E-10,1.0],"scale":[1.00000012,1.0,0.99999994],"name":"Assembly-7"},{"children":[9],"rotation":[7.450581E-09,0.0,-3.72529074E-09,1.0],"scale":[1.0,0.99999994,1.0],"name":"Assembly-8"},{"rotation":[7.450581E-09,0.0,-3.72529074E-09,1.0],"scale":[1.0,0.99999994,1.0],"name":"Assembly-9"},{"children":[11],"translation":[-1.0,-1.014875,-0.99999994],"rotation":[-0.5031342,-0.7673337,-0.217994824,-0.33246544],"scale":[2.58482242,2.313304,3.71161675],"name":"Assembly-10"},{"children":[12],"rotation":[9.31322464E-10,7.450581E-09,4.656613E-10,1.0],"scale":[1.0,1.00000012,1.0],"name":"Assembly-11"},{"rotation":[9.31322464E-10,7.450581E-09,4.656613E-10,1.0],"scale":[1.0,1.00000012,1.0],"name":"Assembly-12"},{"children":[14],"translation":[-0.0412740037,-0.050509,-0.00142600224],"rotation":[-3.67879038E-09,-1.0,-1.47151615E-08,0.0],"scale":[0.88054,-0.12658,0.12658],"name":"Assembly-16"},{"children":[15],"rotation":[0.0,-5.86733222E-08,6.00703061E-08,1.0],"scale":[1.0,0.9999999,0.9999999],"name":"Assembly-17"},{"rotation":[-1.77635684E-15,-5.86733151E-08,-9.313226E-10,1.0],"scale":[1.00000012,1.0,0.99999994],"name":"Assembly-18"},{"mesh":0,"translation":[2.5756495,1.022738,-0.406347],"rotation":[0.215675414,-0.37210992,-0.08933564,0.8983527],"scale":[0.53395927,0.53395927,0.53395927],"name":"Box001"},{"camera":0,"translation":[3.21090078,1.05760169,126.428253],"name":"Camera001"}],"cameras":[{"perspective":{"yfov":0.0528138056,"zfar":10000.0,"znear":0.1},"type":"perspective","name":"Camera001"}],"meshes":[{"primitives":[{"attributes":{"POSITION":1,"NORMAL":2,"TEXCOORD_0":3},"indices":0,"material":0},{"attributes":{"POSITION":5,"NORMAL":6,"TEXCOORD_0":7},"indices":4,"material":1},{"attributes":{"POSITION":9,"NORMAL":10,"TEXCOORD_0":11},"indices":8,"material":2}],"name":"Box001"}],"accessors":[{"bufferView":0,"componentType":5123,"count":264,"type":"SCALAR","name":"accessorIndices"},{"bufferView":1,"componentType":5126,"count":142,"max":[3.74999976,3.74999976,3.74999976],"min":[-3.74999976,-3.74999976,-3.74999976],"type":"VEC3","name":"accessorPositions"},{"bufferView":1,"byteOffset":1704,"componentType":5126,"count":142,"type":"VEC3","name":"accessorNormals"},{"bufferView":2,"componentType":5126,"count":142,"type":"VEC2","name":"accessorUVs"},{"bufferView":0,"byteOffset":528,"componentType":5123,"count":42,"type":"SCALAR","name":"accessorIndices"},{"bufferView":1,"byteOffset":3408,"componentType":5126,"count":118,"max":[3.74999976,3.74999976,3.74999976],"min":[-3.74999976,-3.74999976,-3.74999976],"type":"VEC3","name":"accessorPositions"},{"bufferView":1,"byteOffset":4824,"componentType":5126,"count":118,"type":"VEC3","name":"accessorNormals"},{"bufferView":2,"byteOffset":1136,"componentType":5126,"count":118,"type":"VEC2","name":"accessorUVs"},{"bufferView":0,"byteOffset":612,"componentType":5123,"count":54,"type":"SCALAR","name":"accessorIndices"},{"bufferView":1,"byteOffset":6240,"componentType":5126,"count":28,"max":[3.74999976,3.74999976,3.74999976],"min":[-3.74999976,-2.98586869,-3.74999976],"type":"VEC3","name":"accessorPositions"},{"bufferView":1,"byteOffset":6576,"componentType":5126,"count":28,"type":"VEC3","name":"accessorNormals"},{"bufferView":2,"byteOffset":2080,"componentType":5126,"count":28,"type":"VEC2","name":"accessorUVs"}],"bufferViews":[{"buffer":0,"byteLength":720,"name":"bufferViewScalar"},{"buffer":0,"byteOffset":720,"byteLength":6912,"byteStride":12,"name":"bufferViewFloatVec3"},{"buffer":0,"byteOffset":7632,"byteLength":2304,"byteStride":8,"name":"bufferViewFloatVec2"}],"buffers":[{"uri":"cube.bin","byteLength":9936}],"materials":[{"pbrMetallicRoughness":{"baseColorFactor":[0.392156869,0.3764706,0.239215687,1.0],"metallicFactor":0.0,"roughnessFactor":0.450053632},"doubleSided":true,"name":"Material #2"},{"pbrMetallicRoughness":{"baseColorFactor":[0.5019608,0.482352942,0.31764707,1.0],"metallicFactor":0.0,"roughnessFactor":0.450053632},"doubleSided":true,"name":"Material #1"},{"pbrMetallicRoughness":{"baseColorFactor":[0.596078455,0.572549045,0.368627459,1.0],"metallicFactor":0.0,"roughnessFactor":0.450053632},"doubleSided":true,"name":"Material #0"}]}