{"accessors":[{"bufferView":0,"componentType":5125,"count":165,"max":[162.0],"min":[0.0],"type":"SCALAR"},{"bufferView":1,"componentType":5126,"count":165,"max":[10.999999046325684,9.0,10.600000381469727],"min":[-0.600000262260437,-0.6000031232833862,-0.6000003218650818],"type":"VEC3"},{"bufferView":2,"componentType":5126,"count":165,"max":[1.0,-0.0,1.0],"min":[-1.0,-1.0,-1.0],"type":"VEC3"},{"bufferView":3,"componentType":5125,"count":150,"max":[146.0],"min":[0.0],"type":"SCALAR"},{"bufferView":4,"componentType":5126,"count":150,"max":[10.999999046325684,9.0,10.600000381469727],"min":[-0.6000003218650818,-0.6000031232833862,-0.6000003218650818],"type":"VEC3"},{"bufferView":5,"componentType":5126,"count":150,"max":[0.0,1.0,1.0],"min":[0.0,-1.0,0.0],"type":"VEC3"},{"bufferView":6,"componentType":5125,"count":57,"max":[56.0],"min":[0.0],"type":"SCALAR"},{"bufferView":7,"componentType":5126,"count":57,"max":[-0.5999979972839356,9.0,10.600000381469727],"min":[-0.6000003218650818,-0.6000004410743713,-0.6000000238418579],"type":"VEC3"},{"bufferView":8,"componentType":5126,"count":57,"max":[1.0,-0.0,0.0],"min":[1.0,-0.0,0.0],"type":"VEC3"}],"asset":{"generator":"SimLab GLTF","version":"2.0"},"bufferViews":[{"buffer":0,"byteLength":660,"target":34963},{"buffer":0,"byteLength":1980,"byteOffset":660,"byteStride":12,"target":34962},{"buffer":0,"byteLength":1980,"byteOffset":2640,"byteStride":12,"target":34962},{"buffer":0,"byteLength":600,"byteOffset":4620,"target":34963},{"buffer":0,"byteLength":1800,"byteOffset":5220,"byteStride":12,"target":34962},{"buffer":0,"byteLength":1800,"byteOffset":7020,"byteStride":12,"target":34962},{"buffer":0,"byteLength":228,"byteOffset":8820,"target":34963},{"buffer":0,"byteLength":684,"byteOffset":9048,"byteStride":12,"target":34962},{"buffer":0,"byteLength":684,"byteOffset":9732,"byteStride":12,"target":34962}],"buffers":[{"byteLength":10416,"uri":"triangle.bin"}],"extensionsUsed":["KHR_materials_pbrSpecularGlossiness"],"materials":[{"extensions":{"KHR_materials_pbrSpecularGlossiness":{"diffuseFactor":[0.3333333432674408,0.5098039507865906,0.6000000238418579,1.0],"specularFactor":[0.0,0.0,0.0],"glossinessFactor":0.019999980926513673}},"name":"Material_001","alphaMode":"MASK","doubleSided":true,"pbrMetallicRoughness":{"baseColorFactor":[0.3333333432674408,0.5098039507865906,0.6000000238418579,1.0],"metallicFactor":0.0}},{"extensions":{"KHR_materials_pbrSpecularGlossiness":{"diffuseFactor":[0.2705882489681244,0.4156862795352936,0.48627451062202456,1.0],"specularFactor":[0.0,0.0,0.0],"glossinessFactor":0.019999980926513673}},"name":"Material_002","alphaMode":"MASK","doubleSided":true,"pbrMetallicRoughness":{"baseColorFactor":[0.2705882489681244,0.4156862795352936,0.48627451062202456,1.0],"metallicFactor":0.0}},{"extensions":{"KHR_materials_pbrSpecularGlossiness":{"diffuseFactor":[0.2078431397676468,0.3176470696926117,0.37254902720451357,1.0],"specularFactor":[0.0,0.0,0.0],"glossinessFactor":0.019999980926513673}},"name":"Material_003","alphaMode":"MASK","doubleSided":true,"pbrMetallicRoughness":{"baseColorFactor":[0.2078431397676468,0.3176470696926117,0.37254902720451357,1.0],"metallicFactor":0.0}}],"meshes":[{"primitives":[{"attributes":{"NORMAL":2,"POSITION":1},"indices":0,"material":0,"mode":4}]},{"primitives":[{"attributes":{"NORMAL":5,"POSITION":4},"indices":3,"material":1,"mode":4}]},{"primitives":[{"attributes":{"NORMAL":8,"POSITION":7},"indices":6,"material":2,"mode":4}]}],"nodes":[{"children":[1,2],"matrix":[1.0,0.0,0.0,0.0,0.0,4.4896593387466768e-11,-1.0,0.0,0.0,1.0,4.4896593387466768e-11,0.0,0.0,0.0,0.0,1.0]},{"name":"Camera-1","rotation":[-0.7071067690849304,0.0,0.0,-0.7071067690849304],"translation":[0.36281806230545046,-35.985206604003909,0.5020036697387695]},{"name":"Assembly-5","children":[3],"rotation":[0.0,0.0,0.0,-1.0],"scale":[0.10000000149011612,0.10000000149011612,0.10000000149011612]},{"name":"Cube","children":[4],"rotation":[-0.11513732373714447,0.280596524477005,-0.8736206293106079,-0.3805207312107086],"scale":[4.853693008422852,4.853693008422852,4.853693008422852],"translation":[3.6281776428222658,4.04869270324707,5.020036697387695]},{"name":"Assembly-2","children":[5,8,11],"rotation":[0.0,0.0,0.0,-1.0],"translation":[-5.199999809265137,-4.19999885559082,-5.0]},{"name":"Cube","children":[7],"rotation":[0.0,0.0,0.0,-1.0]},{"mesh":0},{"children":[6]},{"name":"Cube","children":[10],"rotation":[0.0,0.0,0.0,-1.0]},{"mesh":1},{"children":[9]},{"name":"Cube","children":[13],"rotation":[0.0,0.0,0.0,-1.0]},{"mesh":2},{"children":[12]}],"scene":0,"scenes":[{"nodes":[0]}]}