{"accessors" : [{"bufferView" : 0, "byteOffset" : 0, "componentType" : 5123, "count" : 312, "type" : "SCALAR", "max" : [255], "min" : [0]}, {"bufferView" : 1, "byteOffset" : 0, "componentType" : 5126, "count" : 256, "type" : "VEC3", "max" : [-1.2250224351882935, 2.813373565673828, 2.2751543521881104], "min" : [-5.09511137008667, -0.9352391362190247, -4.286203384399414], "name" : "POSITION"}, {"bufferView" : 1, "byteOffset" : 12, "componentType" : 5126, "count" : 256, "type" : "VEC2", "max" : [1, -0], "min" : [0, -1], "name" : "TEXCOORD_0"}, {"bufferView" : 0, "byteOffset" : 624, "componentType" : 5123, "count" : 264, "type" : "SCALAR", "max" : [219], "min" : [0]}, {"bufferView" : 2, "byteOffset" : 0, "componentType" : 5126, "count" : 220, "type" : "VEC3", "max" : [3.750000238418579, 3.750000238418579, 7.500000476837158], "min" : [-3.750000238418579, -3.75, -1.445179691472731E-07], "name" : "POSITION"}, {"bufferView" : 2, "byteOffset" : 12, "componentType" : 5126, "count" : 220, "type" : "VEC2", "max" : [1.0000004768371582, -0], "min" : [0, -1], "name" : "TEXCOORD_0"}, {"bufferView" : 0, "byteOffset" : 1152, "componentType" : 5123, "count" : 42, "type" : "SCALAR", "max" : [36], "min" : [0]}, {"bufferView" : 3, "byteOffset" : 0, "componentType" : 5126, "count" : 37, "type" : "VEC3", "max" : [3.75, 2.9858691692352295, 7.500000476837158], "min" : [-3.750000238418579, -3.75, -1.445179691472731E-07], "name" : "POSITION"}, {"bufferView" : 3, "byteOffset" : 12, "componentType" : 5126, "count" : 37, "type" : "VEC2", "max" : [1, -0.7456803321838379], "min" : [0, -1], "name" : "TEXCOORD_0"}, {"bufferView" : 0, "byteOffset" : 1236, "componentType" : 5123, "count" : 54, "type" : "SCALAR", "max" : [48], "min" : [0]}, {"bufferView" : 4, "byteOffset" : 0, "componentType" : 5126, "count" : 49, "type" : "VEC3", "max" : [3.750000238418579, 3.750000238418579, 7.500000476837158], "min" : [-3.750000238418579, -3.75, 0.7641308307647705], "name" : "POSITION"}, {"bufferView" : 4, "byteOffset" : 12, "componentType" : 5126, "count" : 49, "type" : "VEC2", "max" : [1, 2.384185791015625E-07], "min" : [0, -1], "name" : "TEXCOORD_0"}], "asset" : {"generator" : "Aspose.3D 22.1", "version" : "2.0"}, "buffers" : [{"uri" : "data:application/octet-stream;base64,", "byteLength" : 14804}], "bufferViews" : [{"buffer" : 0, "byteOffset" : 0, "byteLength" : 1344, "target" : 34963}, {"buffer" : 0, "byteOffset" : 1348, "byteLength" : 6240, "byteStride" : 20, "target" : 34962}, {"buffer" : 0, "byteOffset" : 7592, "byteLength" : 5280, "byteStride" : 20, "target" : 34962}, {"buffer" : 0, "byteOffset" : 12876, "byteLength" : 840, "byteStride" : 20, "target" : 34962}, {"buffer" : 0, "byteOffset" : 13720, "byteLength" : 1080, "byteStride" : 20, "target" : 34962}], "cameras" : [{"perspective" : {"aspectRatio" : 1.3333333333333333, "yfov" : 0.43833943764363487, "zfar" : 1000, "znear" : 0.001}, "type" : "perspective", "name" : "Camera001"}], "materials" : [{"name" : "", "pbrMetallicRoughness" : {"baseColorFactor" : [0.6980392156862745, 0.403921568627451, 0, 1], "metallicFactor" : 0, "roughnessFactor" : 0}, "emissiveFactor" : [0, 0, 0], "alphaMode" : "OPAQUE", "doubleSided" : false}, {"name" : "", "pbrMetallicRoughness" : {"baseColorFactor" : [0.6549019607843137, 0.6431372549019608, 0.5215686274509804, 1], "metallicFactor" : 0, "roughnessFactor" : 0}, "emissiveFactor" : [0, 0, 0], "alphaMode" : "OPAQUE", "doubleSided" : false}, {"name" : "", "pbrMetallicRoughness" : {"baseColorFactor" : [0.7294117647058823, 0.7176470588235294, 0.592156862745098, 1], "metallicFactor" : 0, "roughnessFactor" : 0}, "emissiveFactor" : [0, 0, 0], "alphaMode" : "OPAQUE", "doubleSided" : false}, {"name" : "", "pbrMetallicRoughness" : {"baseColorFactor" : [0.792156862745098, 0.7764705882352941, 0.6352941176470588, 1], "metallicFactor" : 0, "roughnessFactor" : 0}, "emissiveFactor" : [0, 0, 0], "alphaMode" : "OPAQUE", "doubleSided" : false}], "meshes" : [{"primitives" : [{"attributes" : {"POSITION" : 1, "TEXCOORD_0" : 2}, "indices" : 0, "material" : 0, "mode" : 4}], "name" : "3DGeom-4"}, {"primitives" : [{"attributes" : {"POSITION" : 4, "TEXCOORD_0" : 5}, "indices" : 3, "material" : 1, "mode" : 4}, {"attributes" : {"POSITION" : 7, "TEXCOORD_0" : 8}, "indices" : 6, "material" : 2, "mode" : 4}, {"attributes" : {"POSITION" : 10, "TEXCOORD_0" : 11}, "indices" : 9, "material" : 3, "mode" : 4}], "name" : "Box001"}], "nodes" : [{"camera" : 0, "matrix" : [1, 0, 0, 0, 0, 1, 0, 0, 0, 0, 1, 0, 32.1090087890625, -1264.2825927734375, 10.576017379760742, 1], "name" : "Camera001"}, {"matrix" : [14.385369300842285, 11.194197654724121, -11.25075912475586, 0, -0.0009139509638771415, 2.5635244846343994, 1.5816725492477417, 0, -2.484330892562866, 0.7166764736175537, -1.3541995286941528, 0, -24.875276565551758, 7.442378997802734, -2.6466217041015625, 1], "mesh" : 0, "name" : "3DGeom-4"}, {"matrix" : [-0.3775661587715149, -0.17141148447990417, -0.33641403913497925, 0, -0.37756627798080444, 0.17141149938106537, 0.3364138901233673, 0, 6.365290516896494E-08, 0.47576120495796204, -0.24241244792938232, 0, -25.75649642944336, 10.227380752563477, 4.063470363616943, 1], "mesh" : 1, "name" : "Box001"}], "scene" : 0, "scenes" : [{"nodes" : [0, 1, 2]}]}