{"accessors" : [{"bufferView" : 0, "byteOffset" : 0, "componentType" : 5123, "count" : 165, "type" : "SCALAR", "max" : [157], "min" : [0]}, {"bufferView" : 1, "byteOffset" : 0, "componentType" : 5126, "count" : 158, "type" : "VEC3", "max" : [1.0999999046325684, 0.9000000357627869, 1.0480000972747803], "min" : [-0.048000089824199677, -0.04800033941864967, -0.04800012335181236], "name" : "POSITION"}, {"bufferView" : 1, "byteOffset" : 12, "componentType" : 5126, "count" : 158, "type" : "VEC2", "max" : [0, -0], "min" : [0, -0], "name" : "TEXCOORD_0"}, {"bufferView" : 0, "byteOffset" : 332, "componentType" : 5123, "count" : 150, "type" : "SCALAR", "max" : [146], "min" : [0]}, {"bufferView" : 2, "byteOffset" : 0, "componentType" : 5126, "count" : 147, "type" : "VEC3", "max" : [1.0999999046325684, 0.9000000357627869, 1.0480000972747803], "min" : [-0.04800010845065117, -0.04800033941864967, -0.04800012335181236], "name" : "POSITION"}, {"bufferView" : 2, "byteOffset" : 12, "componentType" : 5126, "count" : 147, "type" : "VEC2", "max" : [0, -0], "min" : [0, -0], "name" : "TEXCOORD_0"}, {"bufferView" : 0, "byteOffset" : 632, "componentType" : 5123, "count" : 57, "type" : "SCALAR", "max" : [53], "min" : [0]}, {"bufferView" : 3, "byteOffset" : 0, "componentType" : 5126, "count" : 54, "type" : "VEC3", "max" : [-0.047999877482652664, 0.8999999761581421, 1.0480000972747803], "min" : [-0.04800010845065117, -0.048000067472457886, -0.04800000414252281], "name" : "POSITION"}, {"bufferView" : 3, "byteOffset" : 12, "componentType" : 5126, "count" : 54, "type" : "VEC2", "max" : [0, -0], "min" : [0, -0], "name" : "TEXCOORD_0"}, {"bufferView" : 0, "byteOffset" : 748, "componentType" : 5123, "count" : 165, "type" : "SCALAR", "max" : [157], "min" : [0]}, {"bufferView" : 4, "byteOffset" : 0, "componentType" : 5126, "count" : 158, "type" : "VEC3", "max" : [1.0999999046325684, 0.9000000953674316, 1.0480002164840698], "min" : [-0.04800007864832878, -0.04800040274858475, -0.04800010845065117], "name" : "POSITION"}, {"bufferView" : 4, "byteOffset" : 12, "componentType" : 5126, "count" : 158, "type" : "VEC2", "max" : [0, -0], "min" : [0, -0], "name" : "TEXCOORD_0"}, {"bufferView" : 0, "byteOffset" : 1080, "componentType" : 5123, "count" : 150, "type" : "SCALAR", "max" : [146], "min" : [0]}, {"bufferView" : 5, "byteOffset" : 0, "componentType" : 5126, "count" : 147, "type" : "VEC3", "max" : [1.0999999046325684, 0.9000000953674316, 1.0480000972747803], "min" : [-0.04800008237361908, -0.04800040274858475, -0.04800010845065117], "name" : "POSITION"}, {"bufferView" : 5, "byteOffset" : 12, "componentType" : 5126, "count" : 147, "type" : "VEC2", "max" : [0, -0], "min" : [0, -0], "name" : "TEXCOORD_0"}, {"bufferView" : 0, "byteOffset" : 1380, "componentType" : 5123, "count" : 57, "type" : "SCALAR", "max" : [53], "min" : [0]}, {"bufferView" : 6, "byteOffset" : 0, "componentType" : 5126, "count" : 54, "type" : "VEC3", "max" : [-0.04799986258149147, 0.8999999761581421, 1.0480002164840698], "min" : [-0.04800008237361908, -0.04800005257129669, -0.04800001159310341], "name" : "POSITION"}, {"bufferView" : 6, "byteOffset" : 12, "componentType" : 5126, "count" : 54, "type" : "VEC2", "max" : [0, -0], "min" : [0, -0], "name" : "TEXCOORD_0"}, {"bufferView" : 0, "byteOffset" : 1496, "componentType" : 5123, "count" : 312, "type" : "SCALAR", "max" : [255], "min" : [0]}, {"bufferView" : 7, "byteOffset" : 0, "componentType" : 5126, "count" : 256, "type" : "VEC3", "max" : [-1.2250224351882935, 2.813373565673828, 2.2751543521881104], "min" : [-5.09511137008667, -0.9352391362190247, -4.286203384399414], "name" : "POSITION"}, {"bufferView" : 7, "byteOffset" : 12, "componentType" : 5126, "count" : 256, "type" : "VEC2", "max" : [1, -0], "min" : [0, -1], "name" : "TEXCOORD_0"}], "asset" : {"generator" : "Aspose.3D 22.1", "version" : "2.0"}, "buffers" : [{"uri" : "data:application/octet-stream;base64,", "byteLength" : 23272}], "bufferViews" : [{"buffer" : 0, "byteOffset" : 0, "byteLength" : 2120, "target" : 34963}, {"buffer" : 0, "byteOffset" : 2124, "byteLength" : 3300, "byteStride" : 20, "target" : 34962}, {"buffer" : 0, "byteOffset" : 5428, "byteLength" : 3000, "byteStride" : 20, "target" : 34962}, {"buffer" : 0, "byteOffset" : 8432, "byteLength" : 1140, "byteStride" : 20, "target" : 34962}, {"buffer" : 0, "byteOffset" : 9576, "byteLength" : 3300, "byteStride" : 20, "target" : 34962}, {"buffer" : 0, "byteOffset" : 12880, "byteLength" : 3000, "byteStride" : 20, "target" : 34962}, {"buffer" : 0, "byteOffset" : 15884, "byteLength" : 1140, "byteStride" : 20, "target" : 34962}, {"buffer" : 0, "byteOffset" : 17028, "byteLength" : 6240, "byteStride" : 20, "target" : 34962}], "cameras" : [{"perspective" : {"aspectRatio" : 1.3333333333333333, "yfov" : 0.43833943764363487, "zfar" : 1000, "znear" : 0.001}, "type" : "perspective", "name" : "Camera001"}], "materials" : [{"name" : "", "pbrMetallicRoughness" : {"baseColorFactor" : [0.6235294117647059, 0.45098039215686275, 0.36470588235294116, 1], "metallicFactor" : 0, "roughnessFactor" : 0}, "emissiveFactor" : [0, 0, 0], "alphaMode" : "OPAQUE", "doubleSided" : false}, {"name" : "", "pbrMetallicRoughness" : {"baseColorFactor" : [0.796078431372549, 0.5725490196078431, 0.4549019607843137, 1], "metallicFactor" : 0, "roughnessFactor" : 0}, "emissiveFactor" : [0, 0, 0], "alphaMode" : "OPAQUE", "doubleSided" : false}, {"name" : "", "pbrMetallicRoughness" : {"baseColorFactor" : [0.7568627450980392, 0.5411764705882353, 0.43529411764705883, 1], "metallicFactor" : 0, "roughnessFactor" : 0}, "emissiveFactor" : [0, 0, 0], "alphaMode" : "OPAQUE", "doubleSided" : false}, {"name" : "", "pbrMetallicRoughness" : {"baseColorFactor" : [0.796078431372549, 0.5725490196078431, 0.4549019607843137, 1], "metallicFactor" : 0, "roughnessFactor" : 0}, "emissiveFactor" : [0, 0, 0], "alphaMode" : "OPAQUE", "doubleSided" : false}, {"name" : "", "pbrMetallicRoughness" : {"baseColorFactor" : [0.9019607843137255, 0.6901960784313725, 0.5882352941176471, 1], "metallicFactor" : 0, "roughnessFactor" : 0}, "emissiveFactor" : [0, 0, 0], "alphaMode" : "OPAQUE", "doubleSided" : false}, {"name" : "", "pbrMetallicRoughness" : {"baseColorFactor" : [0.7568627450980392, 0.5411764705882353, 0.43529411764705883, 1], "metallicFactor" : 0, "roughnessFactor" : 0}, "emissiveFactor" : [0, 0, 0], "alphaMode" : "OPAQUE", "doubleSided" : false}, {"name" : "", "pbrMetallicRoughness" : {"baseColorFactor" : [0.6980392156862745, 0.403921568627451, 0, 1], "metallicFactor" : 0, "roughnessFactor" : 0}, "emissiveFactor" : [0, 0, 0], "alphaMode" : "OPAQUE", "doubleSided" : false}], "meshes" : [{"primitives" : [{"attributes" : {"POSITION" : 1, "TEXCOORD_0" : 2}, "indices" : 0, "material" : 0, "mode" : 4}, {"attributes" : {"POSITION" : 4, "TEXCOORD_0" : 5}, "indices" : 3, "material" : 1, "mode" : 4}, {"attributes" : {"POSITION" : 7, "TEXCOORD_0" : 8}, "indices" : 6, "material" : 2, "mode" : 4}], "name" : "Cube"}, {"primitives" : [{"attributes" : {"POSITION" : 10, "TEXCOORD_0" : 11}, "indices" : 9, "material" : 3, "mode" : 4}, {"attributes" : {"POSITION" : 13, "TEXCOORD_0" : 14}, "indices" : 12, "material" : 4, "mode" : 4}, {"attributes" : {"POSITION" : 16, "TEXCOORD_0" : 17}, "indices" : 15, "material" : 5, "mode" : 4}], "name" : "Cube001"}, {"primitives" : [{"attributes" : {"POSITION" : 19, "TEXCOORD_0" : 20}, "indices" : 18, "material" : 6, "mode" : 4}], "name" : "3DGeom-4"}], "nodes" : [{"matrix" : [3.3003716468811035, 1.9936575889587402, 2.9480855464935303, 0, 3.5572214126586914, -1.9720193147659302, -2.6487083435058594, 0, 0.10982728004455566, 3.961667537689209, -2.802046775817871, 0, -3.6281776428222656, 5.020036697387695, 4.04869270324707, 1], "mesh" : 0, "name" : "Cube"}, {"camera" : 0, "matrix" : [1, 0, 0, 0, 0, 1, 0, 0, 0, 0, 1, 0, 32.1090087890625, -1264.2825927734375, 10.576017379760742, 1], "name" : "Camera001"}, {"matrix" : [-3.3003721237182617, -1.993656873703003, 2.948086738586426, 0, -3.5572211742401123, 1.9720191955566406, -2.6487088203430176, 0, -0.10982799530029297, -3.9616684913635254, -2.802046298980713, 0, -54.06608200073242, 16.858413696289062, 4.048692226409912, 1], "mesh" : 1, "name" : "Cube001"}, {"matrix" : [14.385369300842285, 11.194197654724121, -11.25075912475586, 0, -0.0009139509638771415, 2.5635244846343994, 1.5816725492477417, 0, -2.484330892562866, 0.7166764736175537, -1.3541995286941528, 0, -24.875276565551758, 7.442378997802734, -2.6466217041015625, 1], "mesh" : 2, "name" : "3DGeom-4"}], "scene" : 0, "scenes" : [{"nodes" : [0, 1, 2, 3]}]}