{"accessors" : [{"bufferView" : 0, "byteOffset" : 0, "componentType" : 5123, "count" : 138, "type" : "SCALAR", "max" : [131], "min" : [0]}, {"bufferView" : 1, "byteOffset" : 0, "componentType" : 5126, "count" : 132, "type" : "VEC3", "max" : [0.2253703474998474, 4.2091383934021, 5.3501739501953125], "min" : [-4.891028881072998, -0.2250000387430191, -0.005054599605500698], "name" : "POSITION"}, {"bufferView" : 1, "byteOffset" : 12, "componentType" : 5126, "count" : 132, "type" : "VEC2", "max" : [1, -0], "min" : [0, -1], "name" : "TEXCOORD_0"}, {"bufferView" : 0, "byteOffset" : 276, "componentType" : 5123, "count" : 114, "type" : "SCALAR", "max" : [108], "min" : [0]}, {"bufferView" : 2, "byteOffset" : 0, "componentType" : 5126, "count" : 109, "type" : "VEC3", "max" : [0.22500018775463104, 4.2091383934021, 5.350173473358154], "min" : [-4.891028881072998, -0.2250000387430191, -1.8960108150167798E-07], "name" : "POSITION"}, {"bufferView" : 2, "byteOffset" : 12, "componentType" : 5126, "count" : 109, "type" : "VEC2", "max" : [1, -0], "min" : [0, -1], "name" : "TEXCOORD_0"}, {"bufferView" : 0, "byteOffset" : 504, "componentType" : 5123, "count" : 120, "type" : "SCALAR", "max" : [111], "min" : [0]}, {"bufferView" : 3, "byteOffset" : 0, "componentType" : 5126, "count" : 112, "type" : "VEC3", "max" : [0.2253703474998474, 4.2091383934021, 5.3501739501953125], "min" : [-4.891028881072998, -0.22382619976997375, -0.005054599605500698], "name" : "POSITION"}, {"bufferView" : 3, "byteOffset" : 12, "componentType" : 5126, "count" : 112, "type" : "VEC2", "max" : [1, -0], "min" : [0, -1], "name" : "TEXCOORD_0"}], "asset" : {"generator" : "Aspose.3D 22.1", "version" : "2.0"}, "buffers" : [{"uri" : "data:application/octet-stream;base64,", "byteLength" : 8200}], "bufferViews" : [{"buffer" : 0, "byteOffset" : 0, "byteLength" : 744, "target" : 34963}, {"buffer" : 0, "byteOffset" : 748, "byteLength" : 2760, "byteStride" : 20, "target" : 34962}, {"buffer" : 0, "byteOffset" : 3512, "byteLength" : 2280, "byteStride" : 20, "target" : 34962}, {"buffer" : 0, "byteOffset" : 5796, "byteLength" : 2400, "byteStride" : 20, "target" : 34962}], "cameras" : [{"perspective" : {"aspectRatio" : 1.3333333333333333, "yfov" : 0.43833943764363487, "zfar" : 1000, "znear" : 0.001}, "type" : "perspective", "name" : "Camera001"}], "materials" : [{"name" : "", "pbrMetallicRoughness" : {"baseColorFactor" : [0.6078431372549019, 0.7372549019607844, 0.792156862745098, 1], "metallicFactor" : 0, "roughnessFactor" : 0}, "emissiveFactor" : [0, 0, 0], "alphaMode" : "OPAQUE", "doubleSided" : false}, {"name" : "", "pbrMetallicRoughness" : {"baseColorFactor" : [0.5529411764705883, 0.6705882352941176, 0.7215686274509804, 1], "metallicFactor" : 0, "roughnessFactor" : 0}, "emissiveFactor" : [0, 0, 0], "alphaMode" : "OPAQUE", "doubleSided" : false}, {"name" : "", "pbrMetallicRoughness" : {"baseColorFactor" : [0.49019607843137253, 0.592156862745098, 0.6392156862745098, 1], "metallicFactor" : 0, "roughnessFactor" : 0}, "emissiveFactor" : [0, 0, 0], "alphaMode" : "OPAQUE", "doubleSided" : false}], "meshes" : [{"primitives" : [{"attributes" : {"POSITION" : 1, "TEXCOORD_0" : 2}, "indices" : 0, "material" : 0, "mode" : 4}, {"attributes" : {"POSITION" : 4, "TEXCOORD_0" : 5}, "indices" : 3, "material" : 1, "mode" : 4}, {"attributes" : {"POSITION" : 7, "TEXCOORD_0" : 8}, "indices" : 6, "material" : 2, "mode" : 4}], "name" : "Box001"}], "nodes" : [{"camera" : 0, "matrix" : [1, 0, 0, 0, 0, 1, 0, 0, 0, 0, 1, 0, 24.100494384765625, -1264.2825927734375, 3.4550514221191406, 1], "name" : "Camera001"}, {"matrix" : [0.019980326294898987, 0.8483189344406128, -0.5990439653396606, 0, -0.7604234218597412, 0.4200117588043213, 0.5694246292114258, 0, 0.7072868943214417, 0.42760133743286133, 0.6291261911392212, 0, -3.187117099761963, 5.025977611541748, 4.016979217529297, 1], "mesh" : 0, "name" : "Box001"}], "scene" : 0, "scenes" : [{"nodes" : [0, 1]}]}